<?xml version="1.0" encoding="utf-8"?>
<!-- Generator: Adobe Illustrator 16.0.0, SVG Export Plug-In . SVG Version: 6.00 Build 0)  -->
<!DOCTYPE svg PUBLIC "-//W3C//DTD SVG 1.1//EN" "http://www.w3.org/Graphics/SVG/1.1/DTD/svg11.dtd">
<svg version="1.1" id="Capa_1" xmlns="http://www.w3.org/2000/svg" xmlns:xlink="http://www.w3.org/1999/xlink" x="0px" y="0px"
	 width="595.28px" height="193px" viewBox="0 0 595.28 193" enable-background="new 0 0 595.28 193" xml:space="preserve">
<path fill="#FFFFFF" d="M216.096,75.405c1.998-4.782,4.606-8.647,7.823-11.594c3.218-2.947,6.874-5.072,10.969-6.376
	c4.095-1.304,8.189-1.957,12.285-1.957c4.387,0,8.384,0.555,11.991,1.667c3.608,1.111,6.581,2.439,8.921,3.985l-5.703,13.333
	c-2.144-1.256-4.314-2.149-6.508-2.681c-2.193-0.532-4.705-0.797-7.532-0.797c-2.437,0-4.558,0.314-6.361,0.942
	c-1.804,0.628-3.315,1.739-4.533,3.333c-1.219,1.594-2.146,3.816-2.779,6.667c-0.635,2.851-0.951,6.497-0.951,10.941
	c0,4.54,0.316,8.236,0.951,11.086c0.633,2.852,1.584,5.073,2.852,6.667c1.267,1.594,2.827,2.705,4.679,3.333
	c1.853,0.628,3.949,0.942,6.289,0.942c3.509,0,6.435-0.362,8.774-1.087c2.34-0.725,4.777-1.715,7.312-2.972l5.12,12.753
	c-2.828,2.319-6.192,4.034-10.092,5.146c-3.901,1.111-8.043,1.667-12.43,1.667c-4.096,0-8.19-0.556-12.285-1.667
	c-4.095-1.111-7.751-3.068-10.969-5.87c-3.217-2.801-5.825-6.642-7.823-11.521c-1.999-4.88-2.998-11.038-2.998-18.478
	C213.098,86.01,214.097,80.188,216.096,75.405"/>
<path fill="#FFFFFF" d="M304.162,128.809h-20.474V57.016h20.474V128.809z M305.186,32.401c0,6.219-5.041,11.26-11.26,11.26
	c-6.219,0-11.261-5.041-11.261-11.26s5.042-11.261,11.261-11.261C300.145,21.14,305.186,26.182,305.186,32.401"/>
<path fill="#FFFFFF" d="M320.868,71.854V57.507c6.203-1.627,11.165-6.278,13.19-12.363l2.019-6.024h14.187v17.895h18.279v14.839
	h-18.279v33.332c0,3.285,0.56,5.604,1.681,6.956s3.145,2.029,6.07,2.029c1.169,0,2.412-0.241,3.728-0.725
	c1.316-0.482,2.511-1.062,3.584-1.738l4.68,12.896c-2.438,1.836-5.41,3.261-8.921,4.276c-3.51,1.014-7.508,1.521-11.992,1.521
	c-5.558,0-10.14-1.473-13.747-4.42c-3.607-2.946-5.411-7.511-5.411-13.695V71.854H320.868z"/>
<path fill="#FFFFFF" d="M382.842,76.564c1.657-4.686,3.949-8.575,6.874-11.666c2.925-3.092,6.41-5.435,10.455-7.029
	c4.047-1.594,8.507-2.391,13.382-2.391c9.359,0,16.256,2.753,20.693,8.261c4.438,5.506,6.655,13.09,6.655,22.751
	c0,1.643-0.05,3.503-0.147,5.58c-0.097,2.077-0.243,4.033-0.438,5.869h-39.778c0,3.188,0.244,5.845,0.73,7.97
	c0.488,2.126,1.316,3.842,2.486,5.146c1.171,1.305,2.755,2.247,4.754,2.826c1.999,0.58,4.558,0.87,7.678,0.87
	c3.119,0,6.215-0.508,9.286-1.522c3.071-1.014,6.021-2.343,8.848-3.985l6.142,12.608c-3.704,2.995-7.751,5.169-12.137,6.521
	c-4.389,1.353-9.507,2.028-15.356,2.028c-10.53,0-18.598-3.14-24.203-9.42s-8.409-15.65-8.409-28.114
	C380.355,86.685,381.184,81.25,382.842,76.564 M422.912,82.724c0-4.058-0.682-7.149-2.047-9.275
	c-1.365-2.125-4.144-3.188-8.336-3.188c-4.096,0-6.995,1.159-8.702,3.478c-1.706,2.318-2.656,5.796-2.853,10.434h21.938V82.724z"/>
<rect x="454.276" y="21.141" fill="#FFFFFF" width="20.474" height="107.667"/>
<path fill="#FFFFFF" d="M511.638,128.809h-20.474V57.016h20.474V128.809z M512.661,32.401c0,6.219-5.041,11.26-11.26,11.26
	c-6.22,0-11.262-5.041-11.262-11.26s5.042-11.261,11.262-11.261C507.62,21.14,512.661,26.182,512.661,32.401"/>
<path fill="#FFFFFF" d="M540.01,113.882c3.363,0.87,7.141,1.304,11.333,1.304c3.12,0,5.313-0.579,6.582-1.738
	c1.267-1.159,1.899-2.705,1.899-4.638c0-1.642-0.462-2.923-1.388-3.841c-0.927-0.918-2.61-1.811-5.047-2.681l-7.75-2.753
	c-5.362-1.933-9.651-4.541-12.869-7.826s-4.826-7.778-4.826-13.479c0-3.285,0.584-6.328,1.755-9.13
	c1.17-2.802,2.875-5.217,5.118-7.246c2.242-2.029,4.973-3.598,8.189-4.71c3.218-1.111,6.874-1.666,10.969-1.666
	c4.289,0,8.458,0.338,12.504,1.014c4.045,0.677,7.482,1.691,10.31,3.043l-3.948,14.928c-2.438-0.87-5.168-1.715-8.189-2.537
	c-3.022-0.821-6.191-1.232-9.506-1.232c-2.146,0-3.997,0.411-5.558,1.232c-1.56,0.822-2.34,2.343-2.34,4.565
	c0,2.126,0.609,3.671,1.828,4.638c1.219,0.966,3.388,2.029,6.508,3.188l8.189,2.898c5.168,1.836,9.188,4.251,12.065,7.247
	c2.876,2.995,4.314,7.246,4.314,12.752c0,7.15-2.438,12.802-7.312,16.957c-4.875,4.154-11.895,6.23-21.06,6.23
	c-2.242,0-4.533-0.12-6.873-0.361c-2.34-0.242-4.606-0.58-6.8-1.016c-2.194-0.435-4.267-0.941-6.215-1.521
	c-1.95-0.58-3.656-1.208-5.119-1.884l3.071-14.782C533.258,111.998,536.646,113.012,540.01,113.882"/>
<path fill="#4B80FA" d="M62.807,75.75c-10.475-6.31-22.648-10.041-35.691-10.259c-0.405,0.01-0.799,0.061-1.206,0.061
	c-5.646,0-10.219,4.562-10.253,10.198c0.034,5.637,4.607,10.198,10.253,10.198c0.407,0,0.801,0.052,1.206,0.061
	c27.723,0.649,50.087,23.356,50.087,51.233c0-13.459,3.791-26.02,10.259-36.797C81.389,90.325,72.916,81.84,62.807,75.75"/>
<path fill="#2E4FD2" d="M87.462,4c-5.666,0-10.259,4.592-10.259,10.259c0,27.876-22.364,50.583-50.088,51.233
	c13.043,0.218,25.217,3.949,35.692,10.258c10.109-6.089,18.582-14.574,24.655-24.694c6.469-10.778,10.259-23.338,10.259-36.797
	C97.721,8.592,93.129,4,87.462,4"/>
<path fill="#416EED" d="M112.117,75.75c-10.109,6.09-18.582,14.575-24.655,24.695c-6.469,10.777-10.259,23.338-10.259,36.797
	c0,5.666,4.593,10.258,10.259,10.258c5.667,0,10.259-4.592,10.259-10.258c0-27.877,22.364-50.584,50.087-51.233
	C134.765,85.791,122.592,82.061,112.117,75.75"/>
<path fill="#375EDE" d="M149.015,65.552c-0.407,0-0.801-0.051-1.206-0.061c-27.724-0.649-50.088-23.356-50.088-51.233
	c0,13.459-3.79,26.019-10.259,36.797c6.074,10.12,14.546,18.605,24.656,24.695c10.474,6.31,22.648,10.04,35.691,10.259
	c0.405-0.01,0.799-0.061,1.206-0.061c5.646,0,10.219-4.562,10.253-10.198C159.233,70.113,154.661,65.552,149.015,65.552"/>
<polygon fill="#4B80FA" points="229,147.28 228.456,151.613 214.179,151.613 212.876,162.103 224.289,162.103 223.744,166.27 
	212.379,166.27 211.029,177.042 225.378,177.042 224.833,181.375 205.157,181.375 209.349,147.28 "/>
<path fill="#4B80FA" d="M245.172,161.463c-0.142,0.221-0.288,0.379-0.437,0.474c-0.151,0.095-0.336,0.143-0.557,0.143
	c-0.253,0-0.514-0.083-0.781-0.249c-0.269-0.166-0.589-0.352-0.959-0.557c-0.371-0.204-0.81-0.391-1.315-0.557
	c-0.505-0.166-1.112-0.248-1.823-0.248c-0.663,0-1.259,0.087-1.787,0.26c-0.529,0.175-0.983,0.411-1.362,0.711
	c-0.378,0.3-0.667,0.655-0.864,1.065c-0.198,0.411-0.296,0.845-0.296,1.302c0,0.521,0.138,0.959,0.414,1.314
	c0.277,0.354,0.643,0.667,1.101,0.935c0.458,0.27,0.979,0.514,1.563,0.735c0.583,0.221,1.18,0.449,1.788,0.686
	c0.607,0.237,1.203,0.51,1.788,0.817c0.583,0.308,1.104,0.679,1.562,1.113c0.457,0.434,0.824,0.959,1.101,1.574
	c0.276,0.615,0.415,1.35,0.415,2.201c0,1.138-0.226,2.227-0.675,3.269c-0.45,1.041-1.098,1.953-1.942,2.734
	c-0.844,0.781-1.863,1.404-3.054,1.87c-1.192,0.466-2.522,0.699-3.99,0.699c-1.532,0-2.916-0.281-4.156-0.841
	c-1.239-0.561-2.229-1.268-2.97-2.119l1.255-1.942c0.157-0.236,0.338-0.422,0.543-0.556c0.206-0.134,0.459-0.201,0.758-0.201
	c0.284,0,0.561,0.106,0.829,0.319c0.268,0.214,0.588,0.45,0.959,0.711c0.371,0.26,0.825,0.497,1.362,0.71
	c0.536,0.213,1.23,0.319,2.083,0.319c0.711,0,1.342-0.099,1.894-0.296c0.553-0.197,1.018-0.47,1.397-0.816
	c0.379-0.348,0.671-0.75,0.876-1.208c0.205-0.457,0.308-0.939,0.308-1.444c0-0.568-0.138-1.042-0.415-1.421
	c-0.276-0.379-0.642-0.706-1.1-0.982c-0.458-0.275-0.975-0.517-1.551-0.723c-0.576-0.204-1.168-0.418-1.776-0.639
	s-1.2-0.474-1.776-0.758c-0.576-0.283-1.093-0.64-1.551-1.065s-0.825-0.942-1.1-1.551c-0.277-0.607-0.415-1.354-0.415-2.237
	c0-1.042,0.205-2.056,0.616-3.043c0.41-0.985,1.002-1.858,1.775-2.616c0.774-0.758,1.721-1.364,2.842-1.822
	c1.12-0.458,2.399-0.688,3.835-0.688c1.5,0,2.821,0.253,3.966,0.758c1.144,0.506,2.119,1.177,2.925,2.013L245.172,161.463z"/>
<path fill="#4B80FA" d="M247.421,189.401l3.93-32.224h2.557c0.553,0,0.975,0.138,1.267,0.414s0.438,0.707,0.438,1.291l-0.284,4.167
	c0.583-0.947,1.219-1.8,1.905-2.558c0.688-0.758,1.41-1.408,2.167-1.953c0.758-0.545,1.543-0.963,2.356-1.255
	s1.645-0.438,2.498-0.438c1.01,0,1.922,0.186,2.735,0.557s1.503,0.933,2.071,1.682c0.569,0.75,1.006,1.681,1.315,2.794
	c0.308,1.112,0.461,2.41,0.461,3.895c0,1.342-0.138,2.667-0.414,3.978c-0.277,1.311-0.667,2.554-1.172,3.729
	s-1.117,2.269-1.835,3.279c-0.719,1.01-1.512,1.882-2.38,2.616c-0.868,0.733-1.808,1.311-2.817,1.729
	c-1.01,0.418-2.06,0.627-3.15,0.627c-1.135,0-2.166-0.213-3.09-0.639c-0.922-0.427-1.715-1.019-2.378-1.776l-1.232,10.086H247.421z
	 M262.29,160.919c-0.695,0-1.401,0.225-2.119,0.675c-0.719,0.45-1.409,1.077-2.072,1.882c-0.663,0.805-1.283,1.752-1.859,2.841
	c-0.576,1.089-1.069,2.273-1.479,3.552l-0.758,6.015c0.568,0.71,1.234,1.207,2.001,1.492c0.765,0.283,1.534,0.426,2.308,0.426
	c0.757,0,1.468-0.158,2.131-0.475c0.663-0.314,1.271-0.749,1.824-1.302c0.551-0.552,1.048-1.204,1.491-1.953
	c0.441-0.75,0.812-1.551,1.113-2.402c0.299-0.854,0.528-1.741,0.687-2.664c0.157-0.925,0.236-1.836,0.236-2.735
	c0-1.784-0.304-3.122-0.911-4.013C264.274,161.364,263.41,160.919,262.29,160.919"/>
<path fill="#4B80FA" d="M292.384,181.375h-2.676c-0.647,0-1.089-0.165-1.326-0.497c-0.236-0.331-0.355-0.741-0.355-1.23l0.308-3.907
	c-0.553,0.916-1.145,1.74-1.776,2.474c-0.631,0.735-1.294,1.362-1.989,1.883c-0.695,0.521-1.428,0.924-2.202,1.208
	c-0.773,0.283-1.571,0.426-2.391,0.426c-0.932,0-1.792-0.182-2.581-0.544c-0.79-0.363-1.468-0.907-2.037-1.635
	c-0.568-0.725-1.014-1.621-1.337-2.687c-0.324-1.066-0.486-2.301-0.486-3.705c0-1.438,0.182-2.838,0.545-4.203
	c0.363-1.365,0.876-2.652,1.539-3.859s1.46-2.316,2.392-3.326c0.93-1.011,1.972-1.879,3.125-2.605
	c1.152-0.726,2.395-1.29,3.729-1.693c1.333-0.401,2.735-0.603,4.202-0.603c1.058,0,2.108,0.083,3.15,0.248
	c1.042,0.166,2.059,0.454,3.054,0.864L292.384,181.375z M281.918,177.516c0.711,0,1.4-0.232,2.072-0.697
	c0.67-0.466,1.31-1.105,1.918-1.918c0.608-0.813,1.172-1.772,1.693-2.877c0.52-1.105,0.978-2.305,1.373-3.6l0.97-7.766
	c-0.268-0.032-0.532-0.059-0.793-0.083c-0.26-0.024-0.524-0.036-0.793-0.036c-1.357,0-2.631,0.316-3.824,0.948
	c-1.191,0.631-2.225,1.483-3.101,2.557s-1.567,2.316-2.072,3.729c-0.506,1.413-0.757,2.899-0.757,4.463
	c0,1.8,0.288,3.13,0.864,3.989C280.044,177.086,280.86,177.516,281.918,177.516"/>
<path fill="#4B80FA" d="M314.214,179.304c-0.742,0.592-1.487,1.069-2.237,1.433s-1.531,0.619-2.344,0.77
	c-0.813,0.149-1.701,0.225-2.664,0.225c-1.404,0-2.65-0.241-3.74-0.722c-1.09-0.481-2.005-1.161-2.746-2.037
	c-0.744-0.876-1.312-1.929-1.707-3.16c-0.394-1.231-0.591-2.597-0.591-4.096c0-1.295,0.142-2.565,0.426-3.812
	c0.285-1.247,0.687-2.419,1.208-3.517c0.521-1.097,1.156-2.107,1.906-3.03c0.749-0.924,1.59-1.717,2.521-2.38s1.941-1.18,3.031-1.55
	c1.089-0.372,2.24-0.557,3.457-0.557c1.609,0,2.963,0.283,4.06,0.852c1.098,0.568,2.065,1.405,2.901,2.51l-1.61,1.942
	c-0.127,0.126-0.269,0.24-0.427,0.343c-0.157,0.104-0.331,0.154-0.521,0.154c-0.237,0-0.466-0.087-0.687-0.261
	c-0.222-0.174-0.489-0.367-0.805-0.58c-0.316-0.213-0.711-0.41-1.185-0.592s-1.081-0.272-1.823-0.272
	c-0.994,0-1.938,0.269-2.829,0.805c-0.892,0.537-1.673,1.283-2.344,2.238s-1.204,2.095-1.599,3.421s-0.592,2.771-0.592,4.333
	c0,1.863,0.414,3.323,1.243,4.38c0.829,1.059,2.001,1.586,3.516,1.586c0.979,0,1.792-0.142,2.439-0.425
	c0.646-0.285,1.195-0.593,1.646-0.924c0.449-0.331,0.84-0.64,1.172-0.924c0.331-0.284,0.679-0.427,1.042-0.427
	c0.331,0,0.639,0.158,0.923,0.475l1.278,1.562C315.729,177.966,314.956,178.712,314.214,179.304"/>
<path fill="#4B80FA" d="M327.803,157.225l-2.911,24.15h-4.996l2.889-24.15H327.803z M329.319,149.932
	c0,0.458-0.095,0.893-0.284,1.303c-0.189,0.411-0.441,0.77-0.758,1.077c-0.315,0.309-0.671,0.553-1.065,0.734
	s-0.805,0.272-1.23,0.272c-0.427,0-0.833-0.091-1.22-0.272s-0.727-0.426-1.019-0.734c-0.292-0.308-0.528-0.666-0.71-1.077
	c-0.182-0.41-0.273-0.845-0.273-1.303c0-0.457,0.092-0.896,0.273-1.313s0.422-0.781,0.722-1.089c0.3-0.309,0.647-0.553,1.042-0.734
	c0.395-0.181,0.797-0.272,1.208-0.272c0.426,0,0.841,0.092,1.243,0.272c0.402,0.182,0.758,0.426,1.065,0.734
	c0.308,0.308,0.552,0.667,0.733,1.077C329.229,149.018,329.319,149.458,329.319,149.932"/>
<path fill="#4B80FA" d="M340.14,181.73c-1.325,0-2.549-0.225-3.67-0.675c-1.12-0.45-2.087-1.104-2.901-1.965
	c-0.812-0.86-1.447-1.918-1.904-3.173c-0.458-1.255-0.687-2.679-0.687-4.274c0-2.066,0.327-4.001,0.982-5.801
	c0.653-1.799,1.551-3.365,2.688-4.699c1.136-1.334,2.465-2.384,3.989-3.149c1.523-0.766,3.152-1.148,4.89-1.148
	c1.325,0,2.549,0.226,3.669,0.675c1.121,0.45,2.083,1.105,2.89,1.966c0.805,0.86,1.436,1.918,1.894,3.173s0.687,2.679,0.687,4.273
	c0,1.357-0.149,2.667-0.449,3.931c-0.301,1.263-0.719,2.442-1.255,3.539c-0.537,1.098-1.188,2.096-1.954,2.995
	c-0.767,0.899-1.609,1.67-2.533,2.309c-0.923,0.64-1.922,1.137-2.995,1.492C342.404,181.553,341.292,181.73,340.14,181.73
	 M340.59,177.753c1.058,0,2.021-0.296,2.889-0.888c0.868-0.593,1.606-1.386,2.214-2.38s1.077-2.143,1.409-3.444
	c0.331-1.303,0.497-2.664,0.497-4.085c0-2.083-0.383-3.626-1.148-4.629c-0.766-1.002-1.898-1.503-3.397-1.503
	c-1.074,0-2.041,0.292-2.9,0.876c-0.861,0.584-1.591,1.364-2.19,2.344c-0.602,0.979-1.065,2.123-1.397,3.433
	c-0.331,1.312-0.497,2.685-0.497,4.12C336.067,175.701,337.575,177.753,340.59,177.753"/>
<path fill="#4B80FA" d="M371.44,161.463c-0.142,0.221-0.288,0.379-0.437,0.474c-0.151,0.095-0.337,0.143-0.558,0.143
	c-0.253,0-0.514-0.083-0.781-0.249c-0.269-0.166-0.589-0.352-0.959-0.557c-0.371-0.204-0.81-0.391-1.314-0.557
	s-1.112-0.248-1.823-0.248c-0.663,0-1.259,0.087-1.787,0.26c-0.529,0.175-0.982,0.411-1.362,0.711
	c-0.378,0.3-0.667,0.655-0.863,1.065c-0.198,0.411-0.296,0.845-0.296,1.302c0,0.521,0.138,0.959,0.414,1.314
	c0.276,0.354,0.643,0.667,1.101,0.935c0.458,0.27,0.979,0.514,1.563,0.735c0.582,0.221,1.18,0.449,1.787,0.686
	c0.607,0.237,1.203,0.51,1.788,0.817c0.583,0.308,1.104,0.679,1.562,1.113c0.457,0.434,0.823,0.959,1.101,1.574
	c0.276,0.615,0.415,1.35,0.415,2.201c0,1.138-0.226,2.227-0.675,3.269c-0.45,1.041-1.098,1.953-1.942,2.734
	c-0.844,0.781-1.862,1.404-3.054,1.87s-2.521,0.699-3.99,0.699c-1.531,0-2.916-0.281-4.155-0.841
	c-1.239-0.561-2.229-1.268-2.971-2.119l1.255-1.942c0.157-0.236,0.339-0.422,0.543-0.556c0.206-0.134,0.459-0.201,0.759-0.201
	c0.283,0,0.561,0.106,0.829,0.319c0.268,0.214,0.588,0.45,0.959,0.711c0.37,0.26,0.824,0.497,1.361,0.71
	c0.536,0.213,1.23,0.319,2.083,0.319c0.711,0,1.342-0.099,1.895-0.296s1.018-0.47,1.396-0.816c0.379-0.348,0.671-0.75,0.876-1.208
	c0.205-0.457,0.309-0.939,0.309-1.444c0-0.568-0.139-1.042-0.415-1.421s-0.643-0.706-1.101-0.982
	c-0.458-0.275-0.975-0.517-1.551-0.723c-0.576-0.204-1.168-0.418-1.776-0.639c-0.607-0.221-1.199-0.474-1.775-0.758
	c-0.576-0.283-1.093-0.64-1.551-1.065s-0.825-0.942-1.101-1.551c-0.276-0.607-0.415-1.354-0.415-2.237
	c0-1.042,0.205-2.056,0.616-3.043c0.41-0.985,1.002-1.858,1.775-2.616s1.721-1.364,2.842-1.822c1.12-0.458,2.398-0.688,3.835-0.688
	c1.5,0,2.821,0.253,3.966,0.758c1.145,0.506,2.119,1.177,2.925,2.013L371.44,161.463z"/>
<path fill="#4B80FA" d="M401.227,161.463c-0.143,0.221-0.288,0.379-0.438,0.474c-0.15,0.095-0.336,0.143-0.557,0.143
	c-0.253,0-0.514-0.083-0.781-0.249c-0.269-0.166-0.589-0.352-0.959-0.557c-0.371-0.204-0.81-0.391-1.314-0.557
	s-1.112-0.248-1.823-0.248c-0.663,0-1.259,0.087-1.787,0.26c-0.529,0.175-0.983,0.411-1.362,0.711
	c-0.378,0.3-0.667,0.655-0.863,1.065c-0.198,0.411-0.296,0.845-0.296,1.302c0,0.521,0.138,0.959,0.413,1.314
	c0.277,0.354,0.644,0.667,1.102,0.935c0.458,0.27,0.979,0.514,1.562,0.735c0.584,0.221,1.181,0.449,1.788,0.686
	c0.607,0.237,1.203,0.51,1.788,0.817c0.583,0.308,1.104,0.679,1.562,1.113c0.457,0.434,0.824,0.959,1.101,1.574
	s0.415,1.35,0.415,2.201c0,1.138-0.226,2.227-0.675,3.269c-0.45,1.041-1.098,1.953-1.942,2.734c-0.844,0.781-1.862,1.404-3.054,1.87
	c-1.192,0.466-2.522,0.699-3.99,0.699c-1.532,0-2.916-0.281-4.155-0.841c-1.239-0.561-2.229-1.268-2.971-2.119l1.255-1.942
	c0.157-0.236,0.339-0.422,0.543-0.556c0.206-0.134,0.46-0.201,0.759-0.201c0.283,0,0.561,0.106,0.828,0.319
	c0.269,0.214,0.589,0.45,0.959,0.711c0.371,0.26,0.825,0.497,1.362,0.71c0.536,0.213,1.23,0.319,2.083,0.319
	c0.711,0,1.342-0.099,1.895-0.296s1.018-0.47,1.396-0.816c0.379-0.348,0.671-0.75,0.876-1.208c0.205-0.457,0.309-0.939,0.309-1.444
	c0-0.568-0.139-1.042-0.415-1.421s-0.643-0.706-1.101-0.982c-0.458-0.275-0.975-0.517-1.551-0.723
	c-0.576-0.204-1.168-0.418-1.776-0.639c-0.607-0.221-1.199-0.474-1.775-0.758c-0.576-0.283-1.094-0.64-1.551-1.065
	c-0.459-0.426-0.825-0.942-1.101-1.551c-0.276-0.607-0.415-1.354-0.415-2.237c0-1.042,0.205-2.056,0.616-3.043
	c0.41-0.985,1.002-1.858,1.775-2.616s1.721-1.364,2.842-1.822c1.12-0.458,2.398-0.688,3.835-0.688c1.5,0,2.82,0.253,3.966,0.758
	c1.144,0.506,2.119,1.177,2.925,2.013L401.227,161.463z"/>
<path fill="#4B80FA" d="M412.615,157.225l-2.912,24.15h-4.996l2.889-24.15H412.615z M414.131,149.932
	c0,0.458-0.095,0.893-0.284,1.303c-0.19,0.411-0.442,0.77-0.758,1.077c-0.315,0.309-0.671,0.553-1.065,0.734
	s-0.805,0.272-1.23,0.272c-0.427,0-0.833-0.091-1.221-0.272c-0.386-0.182-0.726-0.426-1.018-0.734
	c-0.292-0.308-0.527-0.666-0.71-1.077c-0.182-0.41-0.272-0.845-0.272-1.303c0-0.457,0.091-0.896,0.272-1.313
	c0.183-0.418,0.422-0.781,0.722-1.089c0.3-0.309,0.647-0.553,1.042-0.734c0.395-0.181,0.796-0.272,1.208-0.272
	c0.426,0,0.84,0.092,1.243,0.272c0.402,0.182,0.758,0.426,1.065,0.734c0.308,0.308,0.552,0.667,0.733,1.077
	C414.04,149.018,414.131,149.458,414.131,149.932"/>
<path fill="#4B80FA" d="M415.764,181.375l2.889-24.197h2.558c0.552,0,0.975,0.138,1.267,0.414s0.438,0.707,0.438,1.291l-0.26,3.812
	c1.263-1.941,2.667-3.401,4.213-4.381c1.547-0.978,3.143-1.468,4.784-1.468c1.009,0,1.909,0.202,2.699,0.604
	c0.789,0.403,1.437,0.995,1.941,1.776s0.853,1.74,1.042,2.877c0.189,1.136,0.197,2.438,0.023,3.906l-1.822,15.366h-5.067
	l1.823-15.366c0.221-1.721,0.121-2.972-0.297-3.752c-0.418-0.782-1.172-1.173-2.261-1.173c-0.694,0-1.409,0.197-2.143,0.593
	c-0.734,0.394-1.44,0.951-2.119,1.669s-1.308,1.586-1.883,2.604c-0.576,1.019-1.054,2.151-1.432,3.398l-1.327,12.027H415.764z"/>
<polygon fill="#4B80FA" points="451.919,181.375 456.157,146.334 461.177,146.334 456.915,181.375 "/>
<path fill="#4B80FA" d="M470.979,157.225l-2.912,24.15h-4.996l2.889-24.15H470.979z M476.377,146.901l-5.966,6.132
	c-0.269,0.285-0.518,0.482-0.746,0.593c-0.229,0.11-0.525,0.165-0.888,0.165h-2.795l3.789-5.729
	c0.252-0.395,0.524-0.687,0.816-0.876s0.707-0.284,1.243-0.284H476.377z"/>
<path fill="#4B80FA" d="M474.104,181.375l2.912-24.197h2.558c0.552,0,0.975,0.138,1.267,0.414s0.438,0.707,0.438,1.291l-0.213,3.408
	c1.137-1.814,2.372-3.176,3.706-4.084c1.333-0.907,2.742-1.361,4.226-1.361c1.547,0,2.731,0.525,3.552,1.575
	s1.263,2.561,1.327,4.533c1.166-2.099,2.469-3.642,3.905-4.629c1.437-0.985,2.976-1.479,4.617-1.479
	c2.052,0,3.544,0.798,4.476,2.392c0.931,1.595,1.223,3.852,0.877,6.771l-1.824,15.366h-4.996l1.8-15.366
	c0.11-0.853,0.153-1.59,0.13-2.213c-0.023-0.624-0.118-1.138-0.284-1.539c-0.166-0.403-0.41-0.699-0.733-0.889
	c-0.324-0.189-0.746-0.284-1.268-0.284c-0.631,0-1.259,0.166-1.882,0.497c-0.624,0.332-1.22,0.813-1.788,1.444
	c-0.568,0.632-1.097,1.405-1.586,2.321c-0.489,0.915-0.924,1.957-1.303,3.125l-1.516,12.903h-4.996l1.824-15.366
	c0.11-0.853,0.157-1.59,0.142-2.213c-0.016-0.624-0.103-1.138-0.261-1.539c-0.157-0.403-0.395-0.699-0.709-0.889
	c-0.316-0.189-0.734-0.284-1.256-0.284c-0.694,0-1.357,0.178-1.988,0.532c-0.631,0.356-1.231,0.864-1.8,1.528
	c-0.568,0.663-1.098,1.472-1.586,2.426c-0.491,0.956-0.924,2.033-1.303,3.232l-1.491,12.572H474.104z"/>
<path fill="#4B80FA" d="M519.682,157.225l-2.912,24.15h-4.996l2.889-24.15H519.682z M521.197,149.932
	c0,0.458-0.095,0.893-0.284,1.303c-0.19,0.411-0.442,0.77-0.758,1.077c-0.315,0.309-0.671,0.553-1.065,0.734
	s-0.805,0.272-1.23,0.272c-0.427,0-0.833-0.091-1.221-0.272c-0.386-0.182-0.726-0.426-1.018-0.734
	c-0.292-0.308-0.527-0.666-0.71-1.077c-0.182-0.41-0.272-0.845-0.272-1.303c0-0.457,0.091-0.896,0.272-1.313
	c0.183-0.418,0.422-0.781,0.722-1.089c0.3-0.309,0.647-0.553,1.042-0.734c0.395-0.181,0.796-0.272,1.208-0.272
	c0.426,0,0.84,0.092,1.243,0.272c0.402,0.182,0.758,0.426,1.065,0.734c0.308,0.308,0.552,0.667,0.733,1.077
	C521.106,149.018,521.197,149.458,521.197,149.932"/>
<path fill="#4B80FA" d="M524.771,176.616c0-0.11,0.004-0.24,0.013-0.391c0.007-0.15,0.023-0.366,0.047-0.651
	c0.023-0.284,0.06-0.663,0.106-1.136c0.048-0.475,0.118-1.081,0.213-1.823l1.396-11.389h-2.438c-0.27,0-0.482-0.09-0.64-0.272
	c-0.158-0.182-0.213-0.454-0.166-0.816l0.237-2.061l3.67-0.568l1.894-6.984c0.095-0.269,0.241-0.486,0.438-0.651
	c0.197-0.166,0.438-0.249,0.722-0.249h2.698l-0.993,7.933h6.085l-0.426,3.67h-6.109l-1.35,11.104
	c-0.079,0.648-0.142,1.165-0.189,1.552c-0.047,0.387-0.082,0.694-0.106,0.924c-0.023,0.229-0.04,0.387-0.047,0.474
	c-0.009,0.087-0.012,0.153-0.012,0.201c0,0.694,0.165,1.223,0.497,1.586c0.331,0.363,0.789,0.545,1.373,0.545
	c0.379,0,0.702-0.052,0.971-0.154s0.505-0.214,0.71-0.332s0.379-0.228,0.521-0.331c0.142-0.103,0.275-0.153,0.402-0.153
	c0.173,0,0.3,0.035,0.378,0.105c0.08,0.072,0.158,0.194,0.237,0.368l1.09,2.485c-0.837,0.694-1.765,1.228-2.782,1.599
	c-1.019,0.371-2.048,0.556-3.09,0.556c-1.626,0-2.912-0.445-3.859-1.338C525.316,179.525,524.819,178.258,524.771,176.616"/>
<path fill="#4B80FA" d="M559.412,162.647c0,1.057-0.217,2.027-0.651,2.912c-0.435,0.884-1.212,1.681-2.332,2.391
	c-1.121,0.71-2.661,1.326-4.618,1.847c-1.957,0.521-4.459,0.94-7.505,1.255v0.616c0,2.005,0.435,3.517,1.303,4.534
	c0.868,1.019,2.17,1.527,3.906,1.527c1.089,0,1.997-0.15,2.724-0.45c0.726-0.3,1.345-0.627,1.858-0.982
	c0.513-0.355,0.962-0.683,1.35-0.982c0.387-0.3,0.793-0.45,1.219-0.45c0.332,0,0.64,0.158,0.924,0.474l1.278,1.562
	c-0.82,0.837-1.626,1.559-2.415,2.167c-0.789,0.607-1.595,1.108-2.415,1.503s-1.681,0.687-2.581,0.876
	c-0.899,0.189-1.878,0.284-2.937,0.284c-1.404,0-2.668-0.237-3.787-0.71c-1.121-0.474-2.08-1.141-2.877-2.001
	s-1.409-1.902-1.836-3.125c-0.426-1.224-0.639-2.593-0.639-4.108c0-1.263,0.134-2.505,0.402-3.729s0.659-2.388,1.173-3.493
	c0.513-1.104,1.136-2.126,1.87-3.066c0.734-0.938,1.57-1.748,2.51-2.426c0.938-0.679,1.973-1.212,3.102-1.599s2.34-0.58,3.635-0.58
	c1.246,0,2.328,0.178,3.243,0.532c0.916,0.355,1.678,0.813,2.284,1.373c0.608,0.562,1.062,1.181,1.362,1.859
	S559.412,162,559.412,162.647 M551.788,160.492c-0.885,0-1.701,0.182-2.451,0.544c-0.749,0.364-1.42,0.869-2.012,1.516
	c-0.593,0.648-1.105,1.409-1.539,2.285c-0.435,0.876-0.77,1.835-1.007,2.877c2.179-0.284,3.927-0.6,5.245-0.947
	c1.317-0.348,2.336-0.726,3.054-1.137c0.719-0.409,1.196-0.848,1.433-1.313c0.237-0.466,0.355-0.959,0.355-1.48
	c0-0.252-0.056-0.521-0.166-0.805s-0.288-0.537-0.532-0.758c-0.245-0.221-0.566-0.406-0.959-0.557
	C552.812,160.567,552.34,160.492,551.788,160.492"/>
<path fill="#4B80FA" d="M578.068,161.463c-0.143,0.221-0.288,0.379-0.438,0.474c-0.15,0.095-0.336,0.143-0.557,0.143
	c-0.253,0-0.514-0.083-0.781-0.249c-0.269-0.166-0.589-0.352-0.959-0.557c-0.371-0.204-0.81-0.391-1.314-0.557
	s-1.112-0.248-1.823-0.248c-0.663,0-1.259,0.087-1.787,0.26c-0.529,0.175-0.983,0.411-1.362,0.711
	c-0.378,0.3-0.667,0.655-0.863,1.065c-0.198,0.411-0.296,0.845-0.296,1.302c0,0.521,0.138,0.959,0.413,1.314
	c0.277,0.354,0.644,0.667,1.102,0.935c0.458,0.27,0.979,0.514,1.562,0.735c0.584,0.221,1.181,0.449,1.788,0.686
	c0.607,0.237,1.203,0.51,1.788,0.817c0.583,0.308,1.104,0.679,1.562,1.113c0.457,0.434,0.824,0.959,1.101,1.574
	s0.415,1.35,0.415,2.201c0,1.138-0.226,2.227-0.675,3.269c-0.45,1.041-1.098,1.953-1.942,2.734c-0.844,0.781-1.862,1.404-3.054,1.87
	c-1.192,0.466-2.522,0.699-3.99,0.699c-1.532,0-2.916-0.281-4.155-0.841c-1.239-0.561-2.229-1.268-2.971-2.119l1.255-1.942
	c0.157-0.236,0.339-0.422,0.543-0.556c0.206-0.134,0.46-0.201,0.759-0.201c0.283,0,0.561,0.106,0.828,0.319
	c0.269,0.214,0.589,0.45,0.959,0.711c0.371,0.26,0.825,0.497,1.362,0.71c0.536,0.213,1.23,0.319,2.083,0.319
	c0.711,0,1.342-0.099,1.895-0.296s1.018-0.47,1.396-0.816c0.379-0.348,0.671-0.75,0.876-1.208c0.205-0.457,0.309-0.939,0.309-1.444
	c0-0.568-0.139-1.042-0.415-1.421s-0.643-0.706-1.101-0.982c-0.458-0.275-0.975-0.517-1.551-0.723
	c-0.576-0.204-1.168-0.418-1.776-0.639c-0.607-0.221-1.199-0.474-1.775-0.758c-0.576-0.283-1.094-0.64-1.551-1.065
	c-0.459-0.426-0.825-0.942-1.101-1.551c-0.276-0.607-0.415-1.354-0.415-2.237c0-1.042,0.205-2.056,0.616-3.043
	c0.41-0.985,1.002-1.858,1.775-2.616s1.721-1.364,2.842-1.822c1.12-0.458,2.398-0.688,3.835-0.688c1.5,0,2.82,0.253,3.966,0.758
	c1.144,0.506,2.119,1.177,2.925,2.013L578.068,161.463z"/>
</svg>
