<svg width="240" height="240" viewBox="0 0 240 240" fill="none" xmlns="http://www.w3.org/2000/svg">
<rect width="240" height="240" rx="40" fill="white"/>
<path d="M178.1 190.5C165.7 184 168.8 166.3 182.6 164.6C189.8 163.7 198 170.5 198 177.4C198 187.7 186.8 195.1 178.1 190.5Z" fill="#0A0A0A"/>
<path d="M43 156.8V124.2H56H69V144.2V164.2H80.8C100.2 164.2 112.6 160.4 121.8 151.8C131.2 143 135.5 131.3 134.8 116.8C134 102 129 92 118.5 84C107.9 75.9 99 74.2 66.3 74.2H43V61.6V49L72.8 49.5C98.8 49.9 103.5 50.2 110.9 52.1C134.3 58.1 151.1 73.6 158 95.7C161.1 105.7 161.8 123.9 159.6 135.2C154.2 161.5 137.4 179 110.5 186.3C103.4 188.2 99.2 188.5 72.8 189L43 189.4V156.8Z" fill="#0A0A0A"/>
</svg>
